<svg width="278" height="280" viewBox="0 0 278 280" version="1.1" xmlns="http://www.w3.org/2000/svg" xmlns:xlink="http://www.w3.org/1999/xlink"><defs><path id="path-1" d="M0 0h278v280H0z"/></defs><g id="Page-1" stroke="none" stroke-width="1" fill="none" fill-rule="evenodd"><g id="RoVirus_Landing" transform="translate(-192 -630)"><g id="Group-3-Copy-3" transform="translate(192 630)"><mask id="mask-2" fill="#fff"><use xlink:href="#path-1"/></mask><path d="M278 140c-13.82 17.29-17.322 33.762-10.82 54.17-19.17 9.556-28.336 23.048-29.56 44.488-21.43 1.225-34.918 10.394-44.215 30.18-20.656-7.112-37.121-3.609-54.405 11.162-17.284-14.77-33.75-18.274-54.405-11.162-9.297-19.786-22.785-28.955-44.214-30.18-1.225-21.44-10.39-34.932-29.561-44.489 6.502-20.407 3-36.88-10.82-54.17 13.82-17.289 17.322-33.76 10.82-54.168 19.171-9.557 28.336-23.05 29.56-44.49 21.43-1.224 34.918-10.393 44.215-30.18C105.251 18.273 121.716 14.77 139 0c17.284 14.77 33.75 18.274 54.405 11.16 9.297 19.788 22.785 28.957 44.214 30.182 1.225 21.44 10.391 34.932 29.561 44.489-6.502 20.407-3 36.88 10.82 54.168" id="Fill-1" fill="#FFF" mask="url(#mask-2)"/></g></g></g></svg>