<svg width="152" height="119" viewBox="0 0 152 119" version="1.1" xmlns="http://www.w3.org/2000/svg" xmlns:xlink="http://www.w3.org/1999/xlink"><defs><path id="path-1" d="M0 .792h20.722v22.794H0z"/><path id="path-3" d="M.253.792h17.406V24H.253z"/><path id="path-5" d="M.58.378h18.276V24H.58z"/></defs><g id="Page-1" stroke="none" stroke-width="1" fill="none" fill-rule="evenodd"><g id="RoVirus_Landing-Progetto" transform="translate(-161 -24)"><g id="Group-20" transform="translate(161 24)"><path d="M16.769 38.299h8.012c2.875 0 5.135-.778 6.78-2.334 1.642-1.553 2.464-3.653 2.464-6.294 0-2.758-.836-4.945-2.509-6.56-1.673-1.614-3.917-2.42-6.735-2.42h-8.012v17.608zm8.012-28.614c3.462 0 6.573.456 9.332 1.364 2.758.91 5.106 2.201 7.043 3.874a17.078 17.078 0 014.49 6.075c1.057 2.378 1.585 5.063 1.585 8.056 0 4.109-.998 7.63-2.993 10.565-1.996 2.936-4.754 5.166-8.275 6.692l12.15 26.765H34.024l-10.74-24.652h-6.516v24.652H3.651V9.685h21.13z" id="Fill-1" fill="#000"/><path d="M73.203 35.658c0-1.35.367-2.421 1.101-3.214.733-.793 1.687-1.189 2.862-1.189 1.173 0 2.126.396 2.86 1.19.734.792 1.101 1.863 1.101 3.213v12.325c0 1.351-.367 2.422-1.1 3.214-.735.793-1.688 1.189-2.861 1.189-1.175 0-2.129-.396-2.862-1.19-.734-.791-1.1-1.862-1.1-3.213V35.658zm-5.458 18.488c0 2.465.865 4.461 2.597 5.988 1.731 1.526 4.006 2.288 6.824 2.288 2.817 0 5.09-.762 6.822-2.288 1.731-1.527 2.598-3.523 2.598-5.988v-25.62c0-2.465-.867-4.46-2.598-5.987-1.732-1.526-4.005-2.29-6.822-2.29-2.818 0-5.093.764-6.824 2.29-1.732 1.527-2.597 3.522-2.597 5.987v25.62zm-12.766-25.62c0-2.993.528-5.692 1.584-8.1a17.865 17.865 0 014.49-6.207c1.938-1.73 4.27-3.066 7-4.006 2.73-.939 5.767-1.408 9.113-1.408 3.345 0 6.382.47 9.112 1.408 2.73.94 5.062 2.275 6.999 4.006a17.855 17.855 0 014.49 6.207c1.056 2.408 1.585 5.107 1.585 8.1v25.62c0 2.936-.543 5.621-1.629 8.056-1.086 2.437-2.597 4.521-4.534 6.25-1.937 1.734-4.27 3.083-7 4.051-2.729.97-5.737 1.453-9.023 1.453-3.346 0-6.383-.47-9.113-1.409-2.73-.938-5.062-2.273-7-4.006-1.936-1.73-3.433-3.815-4.49-6.25-1.056-2.436-1.584-5.15-1.584-8.145v-25.62z" id="Fill-3" fill="#000"/><path id="Fill-5" fill="#000" d="M138.354 0h13.647l-30.375 82.76H107.98z"/><g id="Group-9" transform="translate(0 94.833)"><mask id="mask-2" fill="#fff"><use xlink:href="#path-1"/></mask><path d="M0 .792h3.937l5.553 16.12c.221.637.387 1.197.498 1.68.11.483.193.89.248 1.222.055.415.083.774.083 1.078h.373a4.899 4.899 0 01.042-1.078c.055-.332.124-.739.207-1.222.083-.483.234-1.043.456-1.68L16.66.793h4.062l-8.165 22.794H8.33L0 .792z" id="Fill-7" fill="#000" mask="url(#mask-2)"/></g><path d="M35.847 86.715h.829c.802 0 1.45.235 1.948.705s.746 1.077.746 1.823-.248 1.34-.746 1.782c-.498.442-1.146.663-1.948.663h-.829c-.801 0-1.45-.213-1.948-.642-.497-.428-.745-1.029-.745-1.803 0-.746.248-1.353.745-1.823.498-.47 1.147-.705 1.948-.705zm-9.117 31.704v-3.399h8.288V99.024h-7.252v-3.399h10.982v19.395h6.838v3.399H26.73z" id="Fill-10" fill="#000"/><path d="M55.822 95.625v3.937h.332c.359-1.354 1.104-2.417 2.238-3.19 1.133-.774 2.528-1.162 4.185-1.162 2.404 0 4.29.754 5.657 2.26 1.368 1.505 2.052 3.57 2.052 6.195v1.285h-3.73v-.83c0-1.795-.45-3.183-1.347-4.164-.898-.98-2.176-1.472-3.833-1.472-1.63 0-2.929.505-3.896 1.514-.967 1.008-1.45 2.382-1.45 4.123v14.297H52.3V95.625h3.522z" id="Fill-12" fill="#000"/><g id="Group-16" transform="translate(76 94.833)"><mask id="mask-4" fill="#fff"><use xlink:href="#path-3"/></mask><path d="M3.983.792v14.754c0 3.454 1.643 5.18 4.932 5.18 3.343 0 5.015-1.726 5.015-5.18V.792h3.73v14.754c0 2.708-.754 4.794-2.26 6.258C13.894 23.27 11.733 24 8.915 24c-2.764 0-4.897-.738-6.403-2.218-1.506-1.476-2.26-3.556-2.26-6.236V.792h3.731z" id="Fill-14" fill="#000" mask="url(#mask-4)"/></g><g id="Group-19" transform="translate(100 94.833)"><mask id="mask-6" fill="#fff"><use xlink:href="#path-5"/></mask><path d="M.58 17.99h3.936c.166.803.677 1.45 1.534 1.95.856.496 1.906.745 3.15.745h1.16c1.492 0 2.652-.311 3.481-.933.829-.62 1.243-1.457 1.243-2.507 0-1.796-1.27-2.887-3.812-3.274l-3.44-.497c-2.238-.332-3.91-1.036-5.015-2.114C1.712 10.282 1.16 8.777 1.16 6.842c0-2.044.724-3.632 2.176-4.765 1.45-1.133 3.473-1.7 6.07-1.7h1.16c1.106 0 2.128.14 3.068.415.94.277 1.767.67 2.486 1.182a6.673 6.673 0 011.761 1.823c.456.705.753 1.485.891 2.341h-3.936c-.166-.718-.636-1.305-1.41-1.761-.773-.456-1.726-.683-2.86-.683h-1.16c-1.409 0-2.506.276-3.294.828-.788.552-1.181 1.382-1.181 2.486 0 .886.27 1.555.808 2.01.539.456 1.416.767 2.632.933l3.44.497c2.458.36 4.247 1.078 5.366 2.156 1.12 1.077 1.679 2.61 1.679 4.6 0 2.127-.74 3.792-2.218 4.994C15.16 23.399 13.067 24 10.36 24H9.2c-2.404 0-4.387-.546-5.948-1.637C1.692 21.273.8 19.814.58 17.99" id="Fill-17" fill="#000" mask="url(#mask-6)"/></g></g></g></g></svg>