<?xml version="1.0" encoding="UTF-8"?>
<svg width="278px" height="280px" viewBox="0 0 278 280" version="1.1" xmlns="http://www.w3.org/2000/svg" xmlns:xlink="http://www.w3.org/1999/xlink">
    <!-- Generator: Sketch 63.1 (92452) - https://sketch.com -->
    <title>Group 3 Copy 3</title>
    <desc>Created with Sketch.</desc>
    <defs>
        <polygon id="path-1" points="0 0 278 0 278 280 0 280"></polygon>
    </defs>
    <g id="Page-1" stroke="none" stroke-width="1" fill="none" fill-rule="evenodd">
        <g id="RoVirus_Landing" transform="translate(-192.000000, -630.000000)">
            <g id="Group-3-Copy-3" transform="translate(192.000000, 630.000000)">
                <mask id="mask-2" fill="white">
                    <use xlink:href="#path-1"></use>
                </mask>
                <g id="Clip-2"></g>
                <path d="M278,139.99908 C264.179975,157.289525 260.677627,173.76152 267.180411,194.169431 C248.010343,203.725983 238.843569,217.218453 237.619126,238.658162 C216.189538,239.883079 202.702282,249.051557 193.404973,268.837814 C172.749395,261.725576 156.283764,265.229278 139,280 C121.716236,265.229278 105.250605,261.725576 84.5950268,268.837814 C75.2977184,249.051557 61.8104623,239.883079 40.3808743,238.658162 C39.1564315,217.218453 29.9914953,203.725983 10.8195887,194.169431 C17.3223729,173.76152 13.8200251,157.289525 0,139.99908 C13.8200251,122.710475 17.3223729,106.23848 10.8195887,85.830569 C29.9914953,76.2740165 39.1564315,62.7815474 40.3808743,41.3418375 C61.8104623,40.1169214 75.2977184,30.9484429 84.5950268,11.1603466 C105.250605,18.2744238 121.716236,14.7707224 139,0 C156.283764,14.7707224 172.749395,18.2744238 193.404973,11.1603466 C202.702282,30.9484429 216.189538,40.1169214 237.619126,41.3418375 C238.843569,62.7815474 248.010343,76.2740165 267.180411,85.830569 C260.677627,106.23848 264.179975,122.710475 278,139.99908" id="Fill-1" fill="#FFFFFF" mask="url(#mask-2)"></path>
            </g>
        </g>
    </g>
</svg>