<?xml version="1.0" encoding="UTF-8"?>
<svg width="152px" height="119px" viewBox="0 0 152 119" version="1.1" xmlns="http://www.w3.org/2000/svg" xmlns:xlink="http://www.w3.org/1999/xlink">
    <!-- Generator: Sketch 63.1 (92452) - https://sketch.com -->
    <title>Group 20</title>
    <desc>Created with Sketch.</desc>
    <defs>
        <polygon id="path-1" points="0 0.79208 20.72152 0.79208 20.72152 23.58568 0 23.58568"></polygon>
        <polygon id="path-3" points="0.25272 0.79208 17.65912 0.79208 17.65912 24 0.25272 24"></polygon>
        <polygon id="path-5" points="0.5796 0.37768 18.8556 0.37768 18.8556 24 0.5796 24"></polygon>
    </defs>
    <g id="Page-1" stroke="none" stroke-width="1" fill="none" fill-rule="evenodd">
        <g id="RoVirus_Landing-Progetto" transform="translate(-161.000000, -24.000000)">
            <g id="Group-20" transform="translate(161.000000, 24.000000)">
                <path d="M16.76904,38.29904 L24.78104,38.29904 C27.65624,38.29904 29.91624,37.52144 31.56024,35.96544 C33.20264,34.41184 34.02504,32.31184 34.02504,29.67104 C34.02504,26.91264 33.18904,24.72624 31.51624,23.11184 C29.84344,21.49744 27.59864,20.69024 24.78104,20.69024 L16.76904,20.69024 L16.76904,38.29904 Z M24.78104,9.68464 C28.24344,9.68464 31.35384,10.14064 34.11304,11.04864 C36.87144,11.95984 39.21944,13.25024 41.15624,14.92304 C43.09384,16.59584 44.59064,18.62064 45.64664,20.99824 C46.70344,23.37584 47.23144,26.06064 47.23144,29.05424 C47.23144,33.16304 46.23304,36.68464 44.23784,39.61904 C42.24184,42.55504 39.48424,44.78464 35.96264,46.31104 L48.11224,73.07584 L34.02504,73.07584 L23.28424,48.42384 L16.76904,48.42384 L16.76904,73.07584 L3.65064,73.07584 L3.65064,9.68464 L24.78104,9.68464 Z" id="Fill-1" fill="#000000"></path>
                <path d="M73.20344,35.65768 C73.20344,34.30808 73.56984,33.23688 74.30424,32.44408 C75.03704,31.65128 75.99064,31.25528 77.16584,31.25528 C78.33864,31.25528 79.29224,31.65128 80.02664,32.44408 C80.76024,33.23688 81.12744,34.30808 81.12744,35.65768 L81.12744,47.98328 C81.12744,49.33448 80.76024,50.40488 80.02664,51.19688 C79.29224,51.98968 78.33864,52.38568 77.16584,52.38568 C75.99064,52.38568 75.03704,51.98968 74.30424,51.19688 C73.56984,50.40488 73.20344,49.33448 73.20344,47.98328 L73.20344,35.65768 Z M67.74504,54.14648 C67.74504,56.61128 68.60984,58.60728 70.34184,60.13368 C72.07304,61.66008 74.34824,62.42248 77.16584,62.42248 C79.98264,62.42248 82.25624,61.66008 83.98824,60.13368 C85.71944,58.60728 86.58584,56.61128 86.58584,54.14648 L86.58584,28.52568 C86.58584,26.06088 85.71944,24.06648 83.98824,22.53928 C82.25624,21.01288 79.98264,20.24968 77.16584,20.24968 C74.34824,20.24968 72.07304,21.01288 70.34184,22.53928 C68.60984,24.06648 67.74504,26.06088 67.74504,28.52568 L67.74504,54.14648 Z M54.97864,28.52568 C54.97864,25.53288 55.50664,22.83368 56.56344,20.42568 C57.62024,18.02008 59.11704,15.95128 61.05384,14.21928 C62.99064,12.48808 65.32344,11.15288 68.05304,10.21288 C70.78264,9.27448 73.82024,8.80488 77.16584,8.80488 C80.51064,8.80488 83.54824,9.27448 86.27784,10.21288 C89.00744,11.15288 91.34024,12.48808 93.27704,14.21928 C95.21464,15.95128 96.71064,18.02008 97.76744,20.42568 C98.82344,22.83368 99.35224,25.53288 99.35224,28.52568 L99.35224,54.14648 C99.35224,57.08168 98.80904,59.76728 97.72344,62.20248 C96.63704,64.63928 95.12584,66.72328 93.18904,68.45288 C91.25224,70.18568 88.91944,71.53528 86.18984,72.50328 C83.46024,73.47208 80.45224,73.95608 77.16584,73.95608 C73.82024,73.95608 70.78264,73.48568 68.05304,72.54728 C65.32344,71.60888 62.99064,70.27368 61.05384,68.54088 C59.11704,66.81048 57.62024,64.72648 56.56344,62.29048 C55.50664,59.85528 54.97864,57.14008 54.97864,54.14648 L54.97864,28.52568 Z" id="Fill-3" fill="#000000"></path>
                <polygon id="Fill-5" fill="#000000" points="138.35424 0.00064 152.00064 0.00064 121.62624 82.75984 107.97984 82.75984"></polygon>
                <g id="Group-9" transform="translate(0.000000, 94.832800)">
                    <mask id="mask-2" fill="white">
                        <use xlink:href="#path-1"></use>
                    </mask>
                    <g id="Clip-8"></g>
                    <path d="M-8e-05,0.79208 L3.93672,0.79208 L9.49032,16.91288 C9.71112,17.54888 9.87672,18.10888 9.98792,18.59208 C10.09752,19.07528 10.18072,19.48248 10.23592,19.81448 C10.29112,20.22888 10.31912,20.58808 10.31912,20.89208 L10.69192,20.89208 C10.66472,20.58808 10.67752,20.22888 10.73352,19.81448 C10.78872,19.48248 10.85752,19.07528 10.94072,18.59208 C11.02392,18.10888 11.17512,17.54888 11.39672,16.91288 L16.65992,0.79208 L20.72152,0.79208 L12.55672,23.58568 L8.33032,23.58568 L-8e-05,0.79208 Z" id="Fill-7" fill="#000000" mask="url(#mask-2)"></path>
                </g>
                <path d="M35.8472,86.71472 L36.676,86.71472 C37.4776,86.71472 38.1264,86.94992 38.624,87.41952 C39.1216,87.88992 39.3696,88.49712 39.3696,89.24272 C39.3696,89.98912 39.1216,90.58352 38.624,91.02512 C38.1264,91.46672 37.4776,91.68832 36.676,91.68832 L35.8472,91.68832 C35.0456,91.68832 34.3968,91.47472 33.8992,91.04592 C33.4024,90.61792 33.1536,90.01712 33.1536,89.24272 C33.1536,88.49712 33.4024,87.88992 33.8992,87.41952 C34.3968,86.94992 35.0456,86.71472 35.8472,86.71472 L35.8472,86.71472 Z M26.7304,118.41872 L26.7304,115.02032 L35.0184,115.02032 L35.0184,99.02352 L27.7656,99.02352 L27.7656,95.62512 L38.748,95.62512 L38.748,115.02032 L45.5864,115.02032 L45.5864,118.41872 L26.7304,118.41872 Z" id="Fill-10" fill="#000000"></path>
                <path d="M55.82216,95.62488 L55.82216,99.56248 L56.15416,99.56248 C56.51256,98.20808 57.25816,97.14488 58.39176,96.37128 C59.52456,95.59848 60.91976,95.21048 62.57736,95.21048 C64.98136,95.21048 66.86696,95.96408 68.23416,97.46968 C69.60216,98.97528 70.28616,101.04088 70.28616,103.66488 L70.28616,104.94968 L66.55576,104.94968 L66.55576,104.12088 C66.55576,102.32488 66.10616,100.93688 65.20856,99.95608 C64.31096,98.97528 63.03336,98.48408 61.37576,98.48408 C59.74536,98.48408 58.44696,98.98888 57.47976,99.99768 C56.51256,101.00648 56.02936,102.38008 56.02936,104.12088 L56.02936,118.41848 L52.29976,118.41848 L52.29976,95.62488 L55.82216,95.62488 Z" id="Fill-12" fill="#000000"></path>
                <g id="Group-16" transform="translate(76.000000, 94.832800)">
                    <mask id="mask-4" fill="white">
                        <use xlink:href="#path-3"></use>
                    </mask>
                    <g id="Clip-15"></g>
                    <path d="M3.98312,0.79208 L3.98312,15.54568 C3.98312,19.00008 5.62632,20.72648 8.91512,20.72648 C12.25752,20.72648 13.92952,19.00008 13.92952,15.54568 L13.92952,0.79208 L17.65912,0.79208 L17.65912,15.54568 C17.65912,18.25368 16.90552,20.34008 15.39992,21.80408 C13.89432,23.26888 11.73272,24.00008 8.91512,24.00008 C6.15112,24.00008 4.01752,23.26168 2.51192,21.78248 C1.00552,20.30568 0.25272,18.22648 0.25272,15.54568 L0.25272,0.79208 L3.98312,0.79208 Z" id="Fill-14" fill="#000000" mask="url(#mask-4)"></path>
                </g>
                <g id="Group-19" transform="translate(100.000000, 94.832800)">
                    <mask id="mask-6" fill="white">
                        <use xlink:href="#path-5"></use>
                    </mask>
                    <g id="Clip-18"></g>
                    <path d="M0.5796,17.99048 L4.5164,17.99048 C4.682,18.79288 5.1932,19.44088 6.05,19.93928 C6.906,20.43608 7.9564,20.68488 9.1996,20.68488 L10.3604,20.68488 C11.8516,20.68488 13.0124,20.37368 13.8412,19.75208 C14.67,19.13128 15.0844,18.29528 15.0844,17.24488 C15.0844,15.44888 13.8132,14.35848 11.2716,13.97128 L7.8316,13.47368 C5.594,13.14168 3.922,12.43768 2.8172,11.36008 C1.7124,10.28248 1.1596,8.77688 1.1596,6.84248 C1.1596,4.79848 1.8844,3.20968 3.3356,2.07688 C4.786,0.94408 6.8092,0.37768 9.4068,0.37768 L10.5668,0.37768 C11.6716,0.37768 12.694,0.51608 13.634,0.79208 C14.5732,1.06888 15.4012,1.46248 16.1204,1.97368 C16.8388,2.48488 17.426,3.09208 17.8812,3.79688 C18.3372,4.50168 18.634,5.28168 18.7724,6.13848 L14.8356,6.13848 C14.67,5.42008 14.1996,4.83288 13.4268,4.37688 C12.6532,3.92088 11.6996,3.69368 10.5668,3.69368 L9.4068,3.69368 C7.9972,3.69368 6.8996,3.97048 6.1124,4.52248 C5.3244,5.07448 4.9308,5.90408 4.9308,7.00808 C4.9308,7.89368 5.2004,8.56328 5.7388,9.01848 C6.278,9.47448 7.1548,9.78488 8.3708,9.95128 L11.8108,10.44808 C14.2692,10.80728 16.058,11.52648 17.1772,12.60408 C18.2964,13.68088 18.8556,15.21368 18.8556,17.20328 C18.8556,19.33128 18.1156,20.99608 16.638,22.19768 C15.1604,23.39928 13.0668,24.00008 10.3604,24.00008 L9.1996,24.00008 C6.7964,24.00008 4.8132,23.45448 3.2524,22.36328 C1.6916,21.27288 0.8004,19.81448 0.5796,17.99048" id="Fill-17" fill="#000000" mask="url(#mask-6)"></path>
                </g>
            </g>
        </g>
    </g>
</svg>